<?xml version="1.0" encoding="utf-8"?>
<!-- Generator: Adobe Illustrator 19.2.0, SVG Export Plug-In . SVG Version: 6.00 Build 0)  -->
<svg version="1.1" id="Слой_1" xmlns="http://www.w3.org/2000/svg" xmlns:xlink="http://www.w3.org/1999/xlink" x="0px" y="0px"
	 viewBox="0 0 150 30" style="enable-background:new 0 0 150 30;" xml:space="preserve">
<style type="text/css">
	.st0{opacity:0.66;}
	.st1{fill:#ff4c4c;}
	.st2{fill:#1357d2;}
	.st3{fill:#ff4c4c;stroke:#ff4c4c;stroke-miterlimit:10;}
</style>
<g>
	<g class="st0">
		<path class="st1" d="M44.5,21.8H36V6.3h2.5v13.2h6V21.8z"/>
		<path class="st1" d="M45,22.3h-9.5V5.8H39V19h6V22.3z M36.5,21.3H44V20h-6V6.8h-1.5V21.3z"/>
	</g>
	<g>
		<g>
			<g>
				<g>
					<path class="st1" d="M44.2,21.5h-8.5V6.1h2.5v13.2h6V21.5z"/>
					<path class="st1" d="M44.7,22h-9.5V5.6h3.5v13.2h6V22z M36.2,21h7.5v-1.2h-6V6.6h-1.5V21z"/>
				</g>
			</g>
		</g>
	</g>
</g>
<g>
	<g class="st0">
		<path class="st2" d="M66.3,21.8h-2.6L62.5,18h-5.6l-1.2,3.7h-2.6l5.4-14.4h2.7L66.3,21.8z M61.8,16.1l-2-5.7
			c-0.1-0.2-0.1-0.5-0.2-0.9l0,0c-0.1,0.4-0.1,0.7-0.2,0.9l-2,5.7H61.8z"/>
		<path class="st2" d="M66.7,22h-3.1l-1.3-3.6H57l-1.2,3.7h-3.1l5.6-14.9h3L66.7,22z M63.8,21.5h2.1L60.8,7.7h-2.3l-5.3,13.8h2.1
			l1.2-3.7h6L63.8,21.5z M62.2,16.4h-5.1l2.1-6.1c0.1-0.2,0.1-0.5,0.2-0.9V9.2h0.4l0.1,0.2c0.1,0.4,0.1,0.7,0.2,0.9L62.2,16.4z
			 M57.8,15.9h3.7l-1.9-5.3L57.8,15.9z"/>
		<path class="st2" d="M78.3,21.1c-1.1,0.6-2.4,0.8-4,0.8c-2.1,0-3.8-0.7-5-2c-1.3-1.3-1.9-3-1.9-5.2c0-2.3,0.7-4.1,2.1-5.6
			C70.9,7.7,72.7,7,74.8,7c1.4,0,2.5,0.2,3.5,0.6V10c-1-0.6-2-0.9-3.2-0.9c-1.6,0-2.8,0.5-3.8,1.5s-1.4,2.3-1.4,4
			c0,1.6,0.5,2.8,1.4,3.8s2.1,1.4,3.6,1.4c1.4,0,2.5-0.3,3.5-1L78.3,21.1L78.3,21.1z"/>
		<path class="st2" d="M74.3,22.3c-2.1,0-3.9-0.7-5.2-2c-1.3-1.4-2-3.2-2-5.3c0-2.4,0.7-4.3,2.2-5.7c1.5-1.5,3.3-2.2,5.5-2.2
			c1.4,0,2.6,0.2,3.6,0.6l0.2,0.1v3l-0.4-0.5c-0.9-0.5-2-0.8-3.1-0.8c-1.5,0-2.7,0.5-3.6,1.4s-1.4,2.2-1.4,3.8
			c0,1.5,0.4,2.7,1.3,3.6c0.8,0.9,2,1.3,3.4,1.3c1.3,0,2.4-0.3,3.4-0.9l0.4-0.2v2.8l-0.1,0.1C77.3,22,75.9,22.3,74.3,22.3z
			 M74.8,7.3c-2.1,0-3.8,0.7-5.2,2c-1.4,1.4-2,3.2-2,5.4c0,2.1,0.6,3.7,1.8,5c1.2,1.3,2.8,1.9,4.8,1.9c1.5,0,2.8-0.3,3.8-0.7v-1.6
			c-0.9,0.5-2,0.8-3.3,0.8c-1.5,0-2.8-0.5-3.7-1.5c-0.9-1-1.4-2.3-1.4-4s0.5-3.1,1.5-4.2c1-1,2.3-1.6,4-1.6c1.1,0,2,0.2,3,0.7V7.8
			C77.2,7.6,76.2,7.3,74.8,7.3z"/>
		<path class="st2" d="M92.8,21.8h-2.6L88.9,18h-5.7L82,21.7h-2.6l5.4-14.4h2.7L92.8,21.8z M88.3,16.1l-2-5.7c0-0.2-0.1-0.5-0.2-1
			l0,0c-0.1,0.4-0.1,0.7-0.2,0.9l-2,5.7h4.4C88.3,16,88.3,16.1,88.3,16.1z"/>
		<path class="st2" d="M93.2,22h-3.1l-1.3-3.7h-5.3L82.3,22h-3.1l5.6-14.9h3L93.2,22z M90.3,21.5h2.1L87.3,7.7H85l-5.2,13.9h2.1
			l1.2-3.7h6L90.3,21.5z M88.7,16.4h-5.1l2.1-6.1c0.1-0.2,0.1-0.5,0.2-0.9V9.2h0.4l0.1,0.2c0.1,0.4,0.1,0.7,0.2,0.9L88.7,16.4z
			 M84.3,15.9H88l-2-5.3L84.3,15.9z"/>
		<path class="st2" d="M94.8,21.8V7.3h4.1c5.3,0,7.9,2.3,7.9,7c0,2.2-0.7,4-2.2,5.3c-1.5,1.3-3.4,2-5.9,2L94.8,21.8L94.8,21.8z
			 M97.2,9.4v10.3h1.9c1.7,0,3-0.5,3.9-1.4s1.4-2.2,1.4-3.9c0-3.4-1.7-5-5.2-5C99.2,9.4,97.2,9.4,97.2,9.4z"/>
		<path class="st2" d="M98.8,22h-4.2V7.2H99c5.4,0,8.2,2.4,8.2,7.2c0,2.3-0.8,4.1-2.3,5.5S101.3,22,98.8,22z M95.1,21.5h3.7
			c2.4,0,4.3-0.7,5.7-2c1.4-1.3,2.1-3,2.1-5.2c0-4.5-2.5-6.7-7.7-6.7H95v13.9H95.1z M99.1,20h-2.2V9.1h2.2c3.6,0,5.5,1.8,5.5,5.3
			c0,1.7-0.5,3.1-1.5,4.1C102.2,19.5,100.8,20,99.1,20z M97.4,19.5h1.7c1.6,0,2.9-0.4,3.7-1.3c0.9-0.9,1.3-2.1,1.3-3.7
			c0-3.2-1.6-4.8-5-4.8h-1.7V19.5z"/>
		<path class="st2" d="M117.6,21.8h-8.1V7.3h7.7v2h-5.4v4.1h4.9v2h-4.9v4.2h5.7v2.1h0.1V21.8z"/>
		<path class="st2" d="M117.8,22h-8.5V7.2h8.2v2.5H112v3.6h4.9v2.5H112v3.7h5.7C117.7,19.5,117.7,22,117.8,22z M109.8,21.5h7.6V20
			h-5.7v-4.7h4.9v-1.5h-4.9V9.1h5.4V7.7h-7.2v13.8H109.8z"/>
		<path class="st2" d="M135.6,21.8h-2.4v-9.3c0-0.8,0-1.7,0.1-2.8l0,0c-0.1,0.6-0.3,1.1-0.4,1.4l-4.3,10.7H127l-4.3-10.6
			c-0.1-0.3-0.2-0.8-0.4-1.4l0,0c0.1,0.6,0.1,1.5,0.1,2.8v9.3h-2.2V7.3h3.4l3.8,9.6c0.3,0.7,0.5,1.3,0.6,1.6l0,0
			c0.2-0.8,0.4-1.3,0.6-1.7l3.8-9.5h3.2V21.8L135.6,21.8z"/>
		<path class="st2" d="M135.8,22h-2.9v-9.5c0-0.3,0-0.6,0-0.9l-4.2,10.5h-2l-4.2-10.5c0,0.3,0,0.6,0,1v9.5h-2.7V7.2h3.8l3.8,9.7
			c0.1,0.4,0.3,0.7,0.4,1c0.1-0.4,0.3-0.8,0.4-1l3.9-9.7h3.7L135.8,22L135.8,22z M133.4,21.5h1.9V7.7h-2.8l-3.8,9.4
			c-0.2,0.4-0.4,0.9-0.6,1.7L128,19h-0.4l-0.1-0.2c-0.1-0.3-0.3-0.9-0.5-1.6l-3.7-9.5h-2.9v13.9h1.7v-9c0-1.3,0-2.2-0.1-2.8V9.4h0.5
			l0.1,0.2c0.1,0.6,0.3,1.1,0.4,1.4l4.2,10.5h1.3l4.2-10.6c0.1-0.3,0.2-0.7,0.4-1.3V9.4h0.5v0.3c-0.1,1.1-0.1,2-0.1,2.8L133.4,21.5
			L133.4,21.5z"/>
		<path class="st2" d="M149.1,7.3l-4.7,9.1v5.2H142v-5.2l-4.6-9.2h2.7l2.8,6.2c0,0.1,0.1,0.4,0.3,0.8l0,0c0.1-0.2,0.2-0.5,0.3-0.8
			l3-6.2L149.1,7.3L149.1,7.3z"/>
		<path class="st2" d="M144.6,22h-2.9v-5.4L137,7.1h3.3l2.9,6.3c0,0,0,0.1,0.1,0.2c0-0.1,0.1-0.2,0.1-0.2l3-6.3h3.1l-4.9,9.4
			L144.6,22L144.6,22z M142.3,21.5h1.9v-5.1l4.5-8.8h-2l-2.9,6c-0.2,0.3-0.3,0.6-0.3,0.8l-0.1,0.2H143l-0.1-0.2
			c-0.2-0.5-0.3-0.7-0.3-0.8l-2.8-6h-2.1l4.4,8.9v5H142.3z"/>
	</g>
	<g>
		<g>
			<g>
				<g>
					<path class="st2" d="M66.1,21.5h-2.6l-1.3-3.7h-5.6l-1.2,3.7h-2.6l5.4-14.4h2.7L66.1,21.5z M61.5,15.9l-2-5.7
						c-0.1-0.2-0.1-0.5-0.2-0.9l0,0c-0.1,0.4-0.1,0.7-0.2,0.9l-2,5.7H61.5z"/>
					<path class="st2" d="M66.4,21.7h-3.1L62,18.1h-5.3l-1.2,3.7h-3.1L58,6.9h3L66.4,21.7z M63.6,21.2h2.1L60.6,7.4h-2.3L53,21.2
						h2.1l1.2-3.7h6L63.6,21.2z M61.9,16.1h-5.1l2.1-6.1C59,9.8,59,9.5,59.1,9.1V8.9h0.4l0.1,0.2c0.1,0.4,0.1,0.7,0.2,0.9L61.9,16.1
						z M57.5,15.6h3.7l-1.9-5.3L57.5,15.6z"/>
				</g>
				<g>
					<path class="st2" d="M78.1,20.9c-1.1,0.6-2.4,0.8-4,0.8c-2.1,0-3.8-0.7-5-2c-1.3-1.3-1.9-3-1.9-5.2c0-2.3,0.7-4.1,2.1-5.6
						c1.4-1.4,3.2-2.1,5.3-2.1c1.4,0,2.5,0.2,3.5,0.6v2.4c-1-0.6-2-0.9-3.2-0.9c-1.6,0-2.8,0.5-3.8,1.5s-1.4,2.3-1.4,4
						c0,1.6,0.5,2.8,1.4,3.8s2.1,1.4,3.6,1.4c1.4,0,2.5-0.3,3.5-1L78.1,20.9L78.1,20.9z"/>
					<path class="st2" d="M74,22c-2.1,0-3.9-0.7-5.2-2c-1.3-1.4-2-3.2-2-5.3c0-2.4,0.7-4.3,2.2-5.7c1.5-1.5,3.3-2.2,5.5-2.2
						c1.4,0,2.6,0.2,3.6,0.6l0.2,0.1v3L77.9,10c-0.9-0.5-2-0.8-3.1-0.8c-1.5,0-2.7,0.5-3.6,1.4s-1.4,2.2-1.4,3.8
						c0,1.5,0.4,2.7,1.3,3.6c0.8,0.9,2,1.3,3.4,1.3c1.3,0,2.4-0.3,3.4-0.9l0.4-0.2V21l-0.1,0.1C77.1,21.7,75.7,22,74,22z M74.6,7.1
						c-2.1,0-3.8,0.7-5.2,2c-1.4,1.4-2,3.2-2,5.4c0,2.1,0.6,3.7,1.8,5c1.2,1.3,2.8,1.9,4.8,1.9c1.5,0,2.8-0.3,3.8-0.7v-1.6
						c-0.9,0.5-2,0.8-3.3,0.8c-1.5,0-2.8-0.5-3.7-1.5c-0.9-1-1.4-2.3-1.4-4s0.5-3.1,1.5-4.2c1-1,2.3-1.6,4-1.6c1.1,0,2,0.2,3,0.7
						V7.6C76.9,7.3,75.9,7.1,74.6,7.1z"/>
				</g>
				<g>
					<path class="st2" d="M92.6,21.5H90l-1.3-3.7H83l-1.2,3.7h-2.6l5.4-14.4h2.7L92.6,21.5z M88,15.9l-2-5.7c0-0.2-0.1-0.5-0.2-1
						l0,0c-0.1,0.4-0.1,0.7-0.2,0.9l-2,5.7H88V15.9z"/>
					<path class="st2" d="M92.9,21.7h-3.1L88.5,18h-5.3L82,21.7h-3.1l5.6-14.9h3L92.9,21.7z M90.1,21.2h2.1L87.1,7.4h-2.3l-5.2,13.9
						h2.1l1.2-3.7h6L90.1,21.2z M88.4,16.1h-5.1l2.1-6.1c0.1-0.2,0.1-0.5,0.2-0.9V8.9H86l0.1,0.2c0.1,0.4,0.1,0.7,0.2,0.9L88.4,16.1
						z M84,15.6h3.7l-1.9-5.3L84,15.6z"/>
				</g>
				<g>
					<path class="st2" d="M94.5,21.5V7.1h4.1c5.3,0,7.9,2.3,7.9,7c0,2.2-0.7,4-2.2,5.3c-1.5,1.3-3.4,2-5.9,2L94.5,21.5L94.5,21.5z
						 M96.9,9.1v10.3h1.9c1.7,0,3-0.5,3.9-1.4s1.4-2.2,1.4-3.9c0-3.4-1.7-5-5.2-5C98.9,9.1,96.9,9.1,96.9,9.1z"/>
					<path class="st2" d="M98.5,21.7h-4.2V6.9h4.4c5.4,0,8.2,2.4,8.2,7.2c0,2.3-0.8,4.1-2.3,5.5S101,21.7,98.5,21.7z M94.8,21.2h3.7
						c2.4,0,4.3-0.7,5.7-2c1.4-1.3,2.1-3,2.1-5.2c0-4.5-2.5-6.7-7.7-6.7h-3.9v13.9H94.8z M98.8,19.7h-2.2V8.9h2.2
						c3.6,0,5.5,1.8,5.5,5.3c0,1.7-0.5,3.1-1.5,4.1C101.9,19.2,100.5,19.7,98.8,19.7z M97.2,19.2h1.7c1.6,0,2.9-0.4,3.7-1.3
						c0.9-0.9,1.3-2.1,1.3-3.7c0-3.2-1.6-4.8-5-4.8h-1.7V19.2z"/>
				</g>
				<g>
					<path class="st2" d="M117.3,21.5h-8.1V7.1h7.7v2h-5.4v4.1h4.9v2h-4.9v4.2h5.7v2.1C117.2,21.5,117.3,21.5,117.3,21.5z"/>
					<path class="st2" d="M117.5,21.7H109V6.9h8.2v2.5h-5.4V13h4.9v2.5h-4.9v3.7h5.7C117.5,19.2,117.5,21.7,117.5,21.7z M109.5,21.2
						h7.6v-1.5h-5.7V15h4.9v-1.5h-4.9V8.9h5.4V7.4h-7.2v13.8H109.5z"/>
				</g>
				<g>
					<path class="st2" d="M135.3,21.5h-2.4v-9.3c0-0.8,0-1.7,0.1-2.8l0,0c-0.1,0.6-0.3,1.1-0.4,1.4l-4.3,10.7h-1.6l-4.3-10.6
						c-0.1-0.3-0.2-0.8-0.4-1.4l0,0c0.1,0.6,0.1,1.5,0.1,2.8v9.3h-2.2V7.1h3.4l3.8,9.6c0.3,0.7,0.5,1.3,0.6,1.6l0,0
						c0.2-0.8,0.4-1.3,0.6-1.7l3.8-9.5h3.2L135.3,21.5L135.3,21.5z"/>
					<path class="st2" d="M135.5,21.7h-2.9v-9.5c0-0.3,0-0.6,0-0.9l-4.2,10.5h-2l-4.2-10.5c0,0.3,0,0.6,0,1v9.5h-2.7V6.9h3.8
						l3.8,9.7c0.1,0.4,0.3,0.7,0.4,1c0.1-0.4,0.3-0.8,0.4-1l3.9-9.7h3.7L135.5,21.7L135.5,21.7z M133.1,21.2h1.9V7.4h-2.8l-3.8,9.4
						c-0.2,0.4-0.4,0.9-0.6,1.7l-0.1,0.2h-0.4l-0.1-0.2c-0.1-0.3-0.3-0.9-0.5-1.6L123,7.4h-2.9v13.9h1.7v-9c0-1.3,0-2.2-0.1-2.8V9.2
						h0.5l0.1,0.2c0.1,0.6,0.3,1.1,0.4,1.4l4.2,10.5h1.3l4.2-10.6c0.1-0.3,0.2-0.7,0.4-1.3V9.2h0.5v0.3c-0.1,1.1-0.1,2-0.1,2.8
						L133.1,21.2L133.1,21.2z"/>
				</g>
				<g>
					<path class="st2" d="M148.8,7.1l-4.7,9.1v5.2h-2.4v-5.2L137.1,7h2.7l2.8,6.2c0,0.1,0.1,0.4,0.3,0.8l0,0
						c0.1-0.2,0.2-0.5,0.3-0.8l3-6.2L148.8,7.1L148.8,7.1z"/>
					<path class="st2" d="M144.3,21.7h-2.9v-5.4l-4.7-9.5h3.3l2.9,6.3c0,0,0,0.1,0.1,0.2c0-0.1,0.1-0.2,0.1-0.2l3-6.3h3.1l-4.9,9.4
						L144.3,21.7L144.3,21.7z M142,21.2h1.9v-5.1l4.5-8.8h-2l-2.9,6c-0.2,0.3-0.3,0.6-0.3,0.8l-0.1,0.2h-0.4l-0.1-0.2
						c-0.2-0.5-0.3-0.7-0.3-0.8l-2.8-6h-2.1l4.4,8.9v5H142z"/>
				</g>
			</g>
		</g>
	</g>
</g>
<g>
	<g class="st0">
		<path class="st1" d="M2.2,21.1v-2.6c0.2,0.2,0.5,0.4,0.8,0.6s0.7,0.3,1,0.4c0.4,0.1,0.7,0.2,1.1,0.3c0.4,0.1,0.7,0.1,1,0.1
			c1.1,0,1.9-0.2,2.4-0.5s0.8-0.9,0.8-1.6c0-0.4-0.1-0.7-0.3-0.9c-0.2-0.3-0.4-0.5-0.7-0.7c-0.3-0.2-0.6-0.6-1-0.8S6.4,15,5.9,14.8
			c-0.5-0.3-1-0.6-1.5-0.8c-0.4-0.3-0.8-0.6-1.2-0.9c-0.3-0.3-0.6-0.7-0.8-1.2C2.1,11.6,2,11.1,2,10.4c0-0.7,0.2-1.3,0.5-1.9
			c0.3-0.5,0.8-1,1.3-1.3s1.1-0.6,1.8-0.8C6.3,6.3,7,6.1,7.7,6.1c1.6,0,2.8,0.2,3.5,0.5v2.5c-0.8-0.6-1.9-0.9-3.3-0.9
			c-0.4,0-0.7,0-1.1,0.1s-0.7,0.2-1,0.4C5.6,8.9,5.3,9.1,5.2,9.4C5,9.6,4.9,9.9,4.9,10.3c0,0.3,0.1,0.6,0.2,0.9
			c0.1,0.3,0.4,0.5,0.6,0.7c0.3,0.2,0.6,0.4,1,0.6C7,12.6,7.5,12.8,8,13.1s1,0.6,1.5,0.9s0.9,0.6,1.3,1c0.4,0.4,0.6,0.8,0.9,1.2
			c0.3,0.4,0.3,1,0.3,1.5c0,0.8-0.2,1.4-0.5,2s-0.7,1-1.3,1.3c-0.5,0.3-1.1,0.6-1.8,0.7S7,21.9,6.2,21.9c-0.3,0-0.6,0-0.9-0.1
			s-0.8-0.1-1.2-0.2S3.3,21.3,3,21.3S2.3,21.3,2.2,21.1z"/>
		<path class="st1" d="M6.3,22.5c-0.3,0-0.6,0-1-0.1c-0.4,0-0.8-0.1-1.2-0.2c-0.4-0.1-0.8-0.2-1.2-0.3c-0.4-0.1-0.7-0.3-1-0.4
			l-0.2-0.1v-4l0.8,0.8c0.3,0.1,0.5,0.3,0.8,0.5s0.6,0.3,1,0.4c0.3,0.1,0.6,0.2,1,0.2c0.3,0.1,0.6,0.1,0.9,0.1c1,0,1.7-0.2,2.1-0.4
			c0.4-0.3,0.6-0.6,0.6-1.1c0-0.3-0.1-0.5-0.2-0.7c-0.1-0.2-0.3-0.4-0.6-0.6s-0.6-0.4-1-0.6c-0.4-0.2-0.9-0.4-1.4-0.6
			c-0.6-0.3-1.1-0.6-1.5-0.9c-0.5-0.3-0.9-0.7-1.3-1C2.5,13,2.2,12.6,2,12.1S1.7,11,1.7,10.4c0-0.8,0.2-1.5,0.6-2.1s0.8-1.1,1.4-1.5
			s1.2-0.7,2-0.8c0.7-0.2,1.5-0.3,2.2-0.3c1.7,0,2.9,0.2,3.7,0.6l0.3,0.1v3.8l-0.8-0.6C10.3,9,9.3,8.7,8,8.7c-0.3,0-0.7,0-1,0.1
			c-0.3,0-0.6,0.1-0.9,0.3C5.8,9.3,5.7,9.4,5.6,9.6c-0.2,0.1-0.2,0.3-0.2,0.6s0,0.5,0.1,0.6C5.6,11,5.8,11.2,6,11.3
			c0.2,0.2,0.6,0.4,0.9,0.6c0.4,0.2,0.9,0.4,1.4,0.7c0.6,0.3,1.1,0.6,1.6,0.9c0.5,0.3,1,0.7,1.3,1.1c0.4,0.4,0.7,0.9,1,1.4
			c0.2,0.5,0.4,1.1,0.4,1.8c0,0.9-0.2,1.6-0.5,2.2c-0.4,0.6-0.8,1.1-1.4,1.5c-0.6,0.4-1.3,0.6-2,0.8C7.8,22.4,7.1,22.5,6.3,22.5z
			 M2.7,20.9C2.8,21,3,21,3.2,21.1c0.3,0,0.7,0.1,1.1,0.2s0.7,0.1,1.1,0.2c0.4,0,0.7,0.1,0.9,0.1c0.7,0,1.4-0.1,2.1-0.2
			c0.6-0.1,1.2-0.4,1.7-0.7c0.5-0.3,0.8-0.7,1.1-1.1c0.3-0.5,0.4-1,0.4-1.7c0-0.5-0.1-1-0.3-1.3c-0.2-0.4-0.4-0.8-0.8-1.1
			c-0.3-0.3-0.7-0.7-1.2-0.9c-0.5-0.3-1-0.6-1.5-0.9c-0.5-0.2-1-0.4-1.4-0.6c-0.4-0.2-0.8-0.4-1.1-0.7c-0.3-0.2-0.6-0.5-0.8-0.8
			c-0.2-0.3-0.3-0.7-0.3-1.1c0-0.5,0.1-0.9,0.4-1.2c0.4-0.5,0.7-0.8,1-1S6.3,8,6.8,7.9C7.2,7.8,7.6,7.8,8,7.8c1.1,0,2,0.2,2.9,0.6
			V6.9c-0.7-0.2-1.7-0.4-3-0.4c-0.7,0-1.3,0.1-2,0.2C5.3,7.1,4.7,7.3,4.3,7.6C3.8,7.8,3.3,8.3,3,8.8s-0.4,1-0.4,1.6
			c0,0.5,0.1,1,0.2,1.3c0.2,0.4,0.4,0.7,0.7,1s0.7,0.6,1.1,0.9s0.9,0.6,1.4,0.8s1,0.4,1.4,0.6c0.5,0.3,0.9,0.5,1.3,0.7
			C9,16,9.3,16.3,9.5,16.6s0.3,0.8,0.3,1.2c0,0.8-0.3,1.5-1,2c-0.6,0.4-1.5,0.6-2.7,0.6c-0.3,0-0.7,0-1.1-0.1S4.2,20,3.8,20
			S3,19.7,2.7,19.5c0,0-0.1,0-0.1-0.1L2.7,20.9L2.7,20.9z"/>
	</g>
	<g>
		<g>
			<g>
				<g>
					<path class="st1" d="M1.9,20.9v-2.6c0.2,0.2,0.5,0.4,0.8,0.6s0.7,0.3,1,0.4c0.4,0.1,0.7,0.2,1.1,0.3c0.4,0.1,0.7,0.1,1,0.1
						c1.1,0,1.9-0.2,2.4-0.5S9,18.3,9,17.6c0-0.4-0.1-0.7-0.3-0.9C8.5,16.4,8.3,16.2,8,16s-0.6-0.6-1-0.8s-0.9-0.4-1.4-0.6
						c-0.5-0.3-1-0.6-1.5-0.8c-0.4-0.3-0.8-0.6-1.2-0.9c-0.3-0.3-0.6-0.7-0.8-1.2c-0.2-0.4-0.3-0.9-0.3-1.5c0-0.7,0.2-1.3,0.5-1.9
						c0.3-0.5,0.8-1,1.3-1.3s1.1-0.6,1.8-0.8C6.1,6,6.8,5.9,7.5,5.9c1.6,0,2.8,0.2,3.5,0.5v2.5C10.2,8.3,9.1,8,7.7,8
						C7.3,8,7,8,6.6,8.1s-0.7,0.2-1,0.4C5.3,8.6,5.1,8.8,4.9,9.1C4.7,9.3,4.6,9.6,4.6,10c0,0.3,0.1,0.6,0.2,0.9
						c0.1,0.3,0.4,0.5,0.6,0.7c0.3,0.2,0.6,0.4,1,0.6c0.4,0.2,0.9,0.4,1.4,0.6c0.5,0.3,1,0.6,1.5,0.9s0.9,0.6,1.3,1
						c0.4,0.4,0.6,0.8,0.9,1.2s0.3,1,0.3,1.5c0,0.8-0.2,1.4-0.5,2s-0.7,1-1.3,1.3c-0.5,0.3-1.1,0.6-1.8,0.7S6.8,21.6,6,21.6
						c-0.3,0-0.6,0-0.9-0.1s-0.8-0.1-1.2-0.2S3.1,21.1,2.8,21S2.1,21,1.9,20.9z"/>
					<path class="st1" d="M6,22.2c-0.3,0-0.6,0-1-0.1c-0.4,0-0.8-0.1-1.2-0.2S3,21.7,2.6,21.6s-0.7-0.3-1-0.4l-0.2-0.1v-4l0.8,0.8
						C2.5,18,2.7,18.2,3,18.4c0.3,0.2,0.6,0.3,1,0.4C4.3,18.9,4.6,19,5,19c0.3,0.1,0.6,0.1,0.9,0.1c1,0,1.7-0.2,2.1-0.4
						c0.4-0.3,0.6-0.6,0.6-1.1c0-0.3-0.1-0.5-0.2-0.7c-0.1-0.2-0.3-0.4-0.6-0.6c-0.3-0.2-0.6-0.4-1-0.6c-0.4-0.2-0.9-0.4-1.4-0.6
						c-0.6-0.3-1.1-0.6-1.5-0.9c-0.5-0.3-0.9-0.7-1.3-1c-0.4-0.4-0.7-0.8-0.9-1.3s-0.3-1.1-0.3-1.7c0-0.8,0.2-1.5,0.6-2.1
						S2.8,7,3.4,6.6s1.2-0.7,2-0.8c0.7-0.2,1.5-0.3,2.2-0.3c1.7,0,2.9,0.2,3.7,0.6l0.3,0.1V10l-0.8-0.6C10,8.8,9,8.5,7.7,8.5
						c-0.3,0-0.7,0-1,0.1c-0.3,0-0.6,0.1-0.9,0.3C5.6,9,5.4,9.2,5.3,9.4C5.1,9.5,5.1,9.7,5.1,10s0,0.5,0.1,0.6
						c0.1,0.2,0.3,0.4,0.5,0.5c0.2,0.2,0.6,0.4,0.9,0.6C7,11.9,7.5,12.1,8,12.4c0.6,0.3,1.1,0.6,1.6,0.9c0.5,0.3,1,0.7,1.3,1.1
						c0.4,0.4,0.7,0.9,1,1.4c0.2,0.5,0.4,1.1,0.4,1.8c0,0.9-0.2,1.6-0.5,2.2c-0.4,0.6-0.8,1.1-1.4,1.5c-0.6,0.4-1.3,0.6-2,0.8
						C7.6,22.1,6.8,22.2,6,22.2z M2.4,20.6c0.1,0.1,0.3,0.1,0.5,0.2c0.3,0,0.7,0.1,1.1,0.2s0.7,0.1,1.1,0.2c0.4,0,0.7,0.1,0.9,0.1
						c0.7,0,1.4-0.1,2.1-0.2c0.6-0.1,1.2-0.4,1.7-0.7c0.5-0.3,0.8-0.7,1.1-1.1c0.3-0.5,0.4-1,0.4-1.7c0-0.5-0.1-1-0.3-1.3
						c-0.2-0.4-0.4-0.8-0.8-1.1c-0.3-0.3-0.7-0.7-1.2-0.9c-0.5-0.3-1-0.6-1.5-0.9c-0.5-0.2-1-0.4-1.4-0.6c-0.4-0.2-0.8-0.4-1.1-0.7
						c-0.3-0.2-0.6-0.5-0.8-0.8C4,11,3.9,10.6,3.9,10.2C3.9,9.7,4,9.3,4.3,9c0.4-0.5,0.7-0.8,1-1S6,7.7,6.5,7.6
						c0.4-0.1,0.8-0.1,1.2-0.1c1.1,0,2,0.2,2.9,0.6V6.7c-0.7-0.2-1.7-0.4-3-0.4c-0.7,0-1.3,0.1-2,0.2C5,6.8,4.4,7,4,7.3
						C3.5,7.6,3.1,8,2.8,8.5s-0.4,1-0.4,1.6c0,0.5,0.1,1,0.2,1.3c0.2,0.4,0.4,0.7,0.7,1C3.6,12.7,4,13,4.4,13.3s0.9,0.6,1.4,0.8
						s0.9,0.4,1.3,0.6C7.6,15,8,15.2,8.4,15.4C8.7,15.7,9,16,9.2,16.3s0.3,0.8,0.3,1.2c0,0.8-0.3,1.5-1,2c-0.6,0.4-1.5,0.6-2.7,0.6
						c-0.3,0-0.7,0-1.1-0.1s-0.8-0.2-1.2-0.3s-0.8-0.3-1.1-0.5c0,0-0.1,0-0.1-0.1L2.4,20.6L2.4,20.6z"/>
				</g>
			</g>
		</g>
	</g>
</g>
<g>
	<g class="st0">
		<path class="st3" d="M22.1,9.1c-0.5,0-1,0.4-1,1c0,0.5,0.4,1,1,1c1.2,0,2.2,0.7,2.8,1.7c0.2,0.3,0.5,0.5,0.9,0.5
			c0.1,0,0.3,0,0.4-0.1c0.5-0.2,0.7-0.8,0.4-1.3C25.9,10.1,24.1,9.1,22.1,9.1z"/>
		<path class="st3" d="M32.7,22.4l-3.2-3.2c1-1.3,1.5-3,1.5-4.8C31,9.8,27.3,6,22.7,6s-8.3,3.7-8.3,8.3s3.7,8.3,8.3,8.3
			c1.9,0,3.7-0.7,5-1.7l3.2,3.2c0.2,0.2,0.5,0.4,0.9,0.4c0.3,0,0.6-0.1,0.9-0.4C33.2,23.5,33.2,22.9,32.7,22.4z M16.4,14.4
			c0-3.5,2.8-6.3,6.3-6.3s6.3,2.8,6.3,6.3c0,1.4-0.5,2.8-1.3,3.8c-0.3,0.4-0.6,0.7-0.9,1c-1.1,0.9-2.5,1.5-4.1,1.5
			C19.1,20.6,16.4,17.9,16.4,14.4z"/>
	</g>
	<g>
		<g>
			<g>
				<path class="st3" d="M21.9,8.8c-0.5,0-1,0.4-1,1c0,0.5,0.4,1,1,1c1.2,0,2.2,0.7,2.8,1.7c0.2,0.3,0.5,0.5,0.9,0.5
					c0.1,0,0.3,0,0.4-0.1c0.5-0.2,0.7-0.8,0.4-1.3C25.6,9.8,23.9,8.8,21.9,8.8z"/>
				<path class="st3" d="M32.4,22.1l-3.2-3.2c1-1.3,1.5-3,1.5-4.8c0-4.6-3.7-8.3-8.3-8.3s-8.3,3.7-8.3,8.3s3.7,8.3,8.3,8.3
					c1.9,0,3.7-0.7,5-1.7l3.2,3.2c0.2,0.2,0.5,0.4,0.9,0.4c0.3,0,0.6-0.1,0.9-0.4C32.9,23.3,32.9,22.6,32.4,22.1z M16.1,14.1
					c0-3.5,2.8-6.3,6.3-6.3s6.3,2.8,6.3,6.3c0,1.4-0.5,2.8-1.3,3.8c-0.3,0.4-0.6,0.7-0.9,1c-1.1,0.9-2.5,1.5-4.1,1.5
					C18.9,20.4,16.1,17.6,16.1,14.1z"/>
			</g>
		</g>
	</g>
</g>
</svg>
